<svg xmlns="http://www.w3.org/2000/svg" viewBox="0 0 32 32">
  <rect width="32" height="32" rx="6" fill="#1E3A5F"/>
  <path d="M8 9c0-1 .8-1.8 1.8-1.8h12.4c1 0 1.8.8 1.8 1.8v14c0 1-.8 1.8-1.8 1.8H9.8c-1 0-1.8-.8-1.8-1.8V9z" fill="white" opacity="0.15"/>
  <path d="M16 9v14M10 12h4M10 16h4M10 20h4" stroke="white" stroke-width="1.8" stroke-linecap="round" opacity="0.9"/>
  <path d="M18 12h4M18 16h4M18 20h4" stroke="white" stroke-width="1.8" stroke-linecap="round" opacity="0.4"/>
  <path d="M14.5 4l-1 4h5l-1-4z" fill="#D4A373"/>
</svg>
